<svg xmlns="http://www.w3.org/2000/svg" xmlns:xlink="http://www.w3.org/1999/xlink" width="224" height="189.654" viewBox="0 0 224 189.654">
  <defs>
    <filter id="Trazado_6" x="22.071" y="0" width="186.36" height="189.654" filterUnits="userSpaceOnUse">
      <feOffset dx="4" dy="-4" input="SourceAlpha"/>
      <feGaussianBlur stdDeviation="10" result="blur"/>
      <feFlood flood-color="#cce5f0"/>
      <feComposite operator="in" in2="blur"/>
      <feComposite in="SourceGraphic"/>
    </filter>
    <filter id="moon_coffe" x="0" y="125.208" width="224" height="63" filterUnits="userSpaceOnUse">
      <feOffset dy="4" input="SourceAlpha"/>
      <feGaussianBlur result="blur-2"/>
      <feFlood flood-color="#ae9254"/>
      <feComposite operator="in" in2="blur-2"/>
      <feComposite in="SourceGraphic"/>
    </filter>
  </defs>
  <g id="logo" transform="translate(-82.5 12.708)">
    <g id="Grupo_1" data-name="Grupo 1" transform="translate(-2.664 -298.017)">
      <g transform="matrix(1, 0, 0, 1, 85.16, 285.31)" filter="url(#Trazado_6)">
        <path id="Trazado_6-2" data-name="Trazado 6" d="M198.843,448.963l-1.243-.05a.158.158,0,0,0-.271,0l-.488-.008a1.739,1.739,0,0,0-1.315-.152,62.183,62.183,0,0,1-19.663-4.6c-22.339-9.29-36.546-25.1-41.209-47.7-4.454-21.583,1.63-40.744,17.53-56.907,10.631-10.806,23.885-17.244,39.357-19.6a26.848,26.848,0,0,1,4.243-.46,2.372,2.372,0,0,0,1.565-.156l1.235-.031c.1.4.442.4.782.447,1.119.147,2.241.282,3.352.472a70.041,70.041,0,0,1,34.574,16.163,64.183,64.183,0,0,1,16.488,21.713,62.2,62.2,0,0,1,5.806,25.5,60.456,60.456,0,0,1-2.507,17.753,62.7,62.7,0,0,1-15.441,26.412,67.825,67.825,0,0,1-23.091,15.708,69.036,69.036,0,0,1-17.7,4.848C200.188,448.409,199.283,448.144,198.843,448.963Zm-30-91.751c-7.59-.226-14.538,5.612-14.6,13.6-.06,7.487,6.446,13.573,14.286,13.691,8.5.128,14.9-6.047,14.9-13.693C183.427,363.068,176.817,357.066,168.842,357.212Zm36.643,80.619a14.155,14.155,0,0,0,14.6-13.079c.289-7.946-6.717-14.1-14.258-14.227-8.236-.134-14.642,6.342-14.87,13.3C190.713,431.5,197.78,438.232,205.485,437.831Zm37.058-74.922a7.561,7.561,0,0,0,8.013-7.378,7.848,7.848,0,0,0-7.961-7.58c-4.1-.069-8.054,3.528-8.03,7.52C234.589,359.5,238.384,363.3,242.544,362.909Zm.547,40.777a6.41,6.41,0,1,0,.128,12.8,6.418,6.418,0,1,0-.128-12.8Zm-39.075-36.28a5.316,5.316,0,0,0-5.693,5.2,5.7,5.7,0,0,0,11.382,0A5.285,5.285,0,0,0,204.016,367.406Zm19.543-33.792c0-1.922-1.411-3.078-3.512-3.228a3.341,3.341,0,1,0,.125,6.66A3.511,3.511,0,0,0,223.559,333.614Zm16.134,54.512a3.355,3.355,0,0,0,3.534,3.371,3.535,3.535,0,0,0,3.522-3.331,3.222,3.222,0,0,0-3.524-3.213C241.108,384.95,239.7,386.211,239.693,388.125Zm-76.752,6.554a3.21,3.21,0,1,0-.018-6.409c-2.226,0-3.657,1.258-3.65,3.213S160.712,394.682,162.942,394.679Zm20.349-57.622a3.229,3.229,0,0,0-3.385,3.306c-.116,1.606,1.522,3.21,3.531,3.294a3.713,3.713,0,0,0,3.542-3.36C186.981,338.92,185.458,336.732,183.291,337.058Zm-.106,66.61a1.576,1.576,0,0,0,1.782-1.526,1.447,1.447,0,0,0-1.434-1.5,1.773,1.773,0,0,0-1.784,1.629A1.451,1.451,0,0,0,183.185,403.668Zm25.5-63.351a1.517,1.517,0,0,0-3.032-.065,1.517,1.517,0,0,0,3.032.065ZM232.9,335.1a1.529,1.529,0,0,0-3.043.291c.037.911.585,1.225,1.472,1.192A1.448,1.448,0,0,0,232.9,335.1Z" transform="translate(-85.16 -285.31)" fill="#cce5f0"/>
      </g>
      <path id="Trazado_7" data-name="Trazado 7" d="M206.8,448.68c.493-.817,1.508-.553,2.246-.637A84.994,84.994,0,0,0,228.9,443.2a77.059,77.059,0,0,0,25.891-15.681A61.465,61.465,0,0,0,272.1,401.157a54.217,54.217,0,0,0,2.811-17.722,56.489,56.489,0,0,0-6.51-25.454A65.442,65.442,0,0,0,249.912,336.3a83.084,83.084,0,0,0-38.767-16.135c-1.246-.19-2.5-.325-3.759-.471-.381-.044-.768-.043-.877-.446a51.637,51.637,0,0,1,11.1.036,83.837,83.837,0,0,1,26.942,6.224c22.726,9.654,37.222,24.84,42.2,45.825,4.8,20.259-.939,38.592-16.711,54.466-11.728,11.8-26.853,19.078-44.927,21.961a94.219,94.219,0,0,1-17.246,1.119A1.685,1.685,0,0,1,206.8,448.68Z" transform="translate(-15.323 0.329)" fill="#88a6b4"/>
      <path id="Trazado_8" data-name="Trazado 8" d="M205.124,319.346a2.516,2.516,0,0,1-1.755.186A2.74,2.74,0,0,1,205.124,319.346Z" transform="translate(-7.005)" fill="#96b4c2"/>
      <path id="Trazado_9" data-name="Trazado 9" d="M203.079,473.645a1.847,1.847,0,0,1,1.475.181A2.044,2.044,0,0,1,203.079,473.645Z" transform="translate(-6.964 -24.927)" fill="#96b4c2"/>
      <path id="Trazado_10" data-name="Trazado 10" d="M205.1,473.836c.1-.121.2-.129.3-.005Z" transform="translate(-7.111 -24.927)" fill="#96b4c2"/>
      <path id="Trazado_11" data-name="Trazado 11" d="M173.16,364.5a16.274,16.274,0,1,1-.355,32.541,16.313,16.313,0,0,1-16.018-16.323A16.136,16.136,0,0,1,173.16,364.5Z" transform="translate(-2.947 -9.253)" fill="#b1cedb"/>
      <path id="Trazado_12" data-name="Trazado 12" d="M214.247,460.618c-8.64.478-16.564-7.553-16.284-16.694a16.339,16.339,0,1,1,32.66,1.1C230.344,453.17,223.145,461.079,214.247,460.618Z" transform="translate(-9.056 -21.927)" fill="#b1cedb"/>
      <path id="Trazado_13" data-name="Trazado 13" d="M255.8,371.291c-4.664.467-8.919-4.064-8.945-8.868a9.291,9.291,0,0,1,9-8.966,9.064,9.064,0,0,1,8.926,9.037C264.881,367.182,260.6,371.814,255.8,371.291Z" transform="translate(-12.686 -6.262)" fill="#b1cedb"/>
      <path id="Trazado_14" data-name="Trazado 14" d="M256.412,419.908a7.633,7.633,0,1,1,.144,15.264,7.633,7.633,0,0,1-.144-15.264Z" transform="translate(-12.672 -17.981)" fill="#b1cedb"/>
      <path id="Trazado_15" data-name="Trazado 15" d="M212.6,376.653c3.846-.428,6.423,3.245,6.379,6.206a6.381,6.381,0,1,1-12.762,0C206.167,379.6,209.154,376.176,212.6,376.653Z" transform="translate(-7.853 -10.082)" fill="#b1cedb"/>
      <path id="Trazado_16" data-name="Trazado 16" d="M234.512,336.364a4.071,4.071,0,0,1-3.8,4.092,4.155,4.155,0,0,1-4.105-3.989c.04-1.911,1.926-4.106,3.965-3.952C232.93,332.694,234.508,334.073,234.512,336.364Z" transform="translate(-10.716 -2.238)" fill="#b1cedb"/>
      <path id="Trazado_17" data-name="Trazado 17" d="M252.6,401.356a3.661,3.661,0,0,1,3.961-3.784,3.713,3.713,0,0,1,3.951,3.831,4.081,4.081,0,0,1-3.949,3.972A3.875,3.875,0,0,1,252.6,401.356Z" transform="translate(-13.426 -13.307)" fill="#b1cedb"/>
      <path id="Trazado_18" data-name="Trazado 18" d="M166.544,409.17c-2.5,0-4.107-1.485-4.113-3.81s1.6-3.832,4.093-3.831a3.821,3.821,0,0,1,.02,7.641Z" transform="translate(-3.038 -13.948)" fill="#b1cedb"/>
      <path id="Trazado_19" data-name="Trazado 19" d="M189.361,340.47c2.43-.388,4.137,2.22,4.135,3.863a4.285,4.285,0,0,1-3.971,4.006,4.043,4.043,0,0,1-3.959-3.927C185.728,342.028,187.074,340.478,189.361,340.47Z" transform="translate(-6.446 -4.072)" fill="#b1cedb"/>
      <path id="Trazado_20" data-name="Trazado 20" d="M189.242,419.887a1.677,1.677,0,0,1-1.61-1.665,2.041,2.041,0,0,1,2-1.942,1.682,1.682,0,0,1,1.608,1.788A1.809,1.809,0,0,1,189.242,419.887Z" transform="translate(-5.5 -16.002)" fill="#b1cedb"/>
      <path id="Trazado_21" data-name="Trazado 21" d="M217.838,344.356c-.069,1.083-.6,1.774-1.735,1.749s-1.648-.718-1.665-1.826a1.7,1.7,0,1,1,3.4.077Z" transform="translate(-9.199 -4)" fill="#b1cedb"/>
      <path id="Trazado_22" data-name="Trazado 22" d="M244.988,338.14a1.672,1.672,0,0,1-1.762,1.768c-.994.039-1.609-.335-1.65-1.421a1.676,1.676,0,0,1,1.672-1.961A1.64,1.64,0,0,1,244.988,338.14Z" transform="translate(-11.94 -3)" fill="#b1cedb"/>
    </g>
    <g id="Grupo_2" data-name="Grupo 2" transform="translate(-79.768 -104.727)">
      <g id="Unión_1" data-name="Unión 1" transform="translate(224.493 194.941)" fill="#f2ddca">
        <path d="M 48.05100250244141 59.01190185546875 C 37.05133438110352 59.01190185546875 26.59245109558105 54.13035202026367 18.6009521484375 45.26648330688477 C 14.11526870727539 40.29115295410156 10.44300174713135 34.12893295288086 7.68615198135376 26.95105171203613 C 4.88285493850708 19.65221786499023 3.032407522201538 11.30494117736816 2.177279710769653 2.111010551452637 C 2.408520698547363 2.112678527832031 2.657199859619141 2.114349126815796 2.922718524932861 2.116017818450928 C 4.736301898956299 2.127401113510132 7.335285186767578 2.138651132583618 10.43870162963867 2.148567914962769 C 16.96511840820313 2.169417858123779 24.8380012512207 2.181867837905884 31.49863433837891 2.181867837905884 C 36.73981857299805 2.181867837905884 41.11923599243164 2.17416787147522 44.16341781616211 2.159601211547852 C 45.86855316162109 2.151434421539307 47.18965148925781 2.141017913818359 48.09001922607422 2.128651142120361 C 48.57956695556641 2.121917724609375 48.94266891479492 2.114734411239624 49.20010375976563 2.106684446334839 C 49.3536491394043 2.101884603500366 49.55586624145508 2.095563173294067 49.77822875976563 2.060387849807739 C 50.17468643188477 2.037026405334473 52.29048538208008 2.000201225280762 61.67636871337891 2.000201225280762 C 72.74431610107422 2.000201225280762 88.41635894775391 2.051610231399536 94.30481719970703 2.072410583496094 C 94.10129547119141 3.233862400054932 93.88801574707031 4.380961894989014 93.66705322265625 5.502134323120117 L 93.02763366699219 8.746500968933105 L 96.19793701171875 7.806334495544434 C 97.10508728027344 7.537301063537598 98.04935455322266 7.400901317596436 99.00450134277344 7.400901317596436 C 100.9593887329102 7.400901317596436 102.9048690795898 7.973017692565918 104.630615234375 9.055418014526367 C 105.8963012695313 9.848817825317383 106.9344863891602 10.87998485565186 107.7167510986328 12.12056827545166 C 108.4820175170898 13.33508491516113 109.0133209228516 14.76338481903076 109.2955322265625 16.365234375 C 109.8697357177734 19.62691688537598 109.40673828125 23.52065086364746 107.9565353393555 27.62523460388184 C 107.3242721557617 29.41531753540039 106.4383316040039 31.04980087280273 105.3233032226563 32.48341751098633 C 104.43408203125 33.6268196105957 103.3959197998047 34.64823532104492 102.2375869750977 35.51940155029297 C 100.3460845947266 36.94341659545898 98.74120330810547 37.48838424682617 98.7252197265625 37.49371719360352 L 98.72254943847656 37.49460220336914 L 98.71945190429688 37.49563598632813 L 98.58267211914063 37.54123306274414 L 98.45383453369141 37.6059684753418 C 93.41886901855469 40.13626861572266 87.85385131835938 41.58795166015625 83.18573760986328 41.58880233764648 C 82.45138549804688 41.58880233764648 81.73561859130859 41.55358505249023 81.05865478515625 41.48413467407227 L 79.91736602783203 41.36706924438477 L 79.24015045166016 42.29313278198242 C 75.05950164794922 48.01006698608398 70.16630554199219 52.32509994506836 64.69648742675781 55.11840057373047 C 59.63738632202148 57.70193481445313 54.03705215454102 59.01190185546875 48.05100250244141 59.01190185546875 Z M 88.93556213378906 27.09913063049316 C 87.65116119384766 29.84561729431152 86.57965087890625 31.75905418395996 86.06381988525391 32.68016815185547 L 86.05628204345703 32.69359970092773 C 85.95360565185547 32.87638473510742 85.87149810791016 33.02256774902344 85.81193542480469 33.13275146484375 C 85.41158294677734 33.87341690063477 85.39237213134766 34.57571792602539 85.75485229492188 35.22011947631836 L 86.42588806152344 36.41306686401367 L 87.78085327148438 36.21950149536133 L 87.78715515136719 36.21860122680664 L 88.28545379638672 36.14741897583008 L 88.51665496826172 35.97705841064453 C 88.51913452148438 35.97601318359375 88.52164459228516 35.97495269775391 88.524169921875 35.97388458251953 L 88.55233764648438 35.96198272705078 C 91.51035308837891 34.71867370605469 93.83114624023438 33.3489875793457 95.44821166992188 31.89178085327148 C 95.96720886230469 31.48329734802246 98.13594818115234 29.62653541564941 99.69111633300781 26.0164852142334 C 100.5516662597656 24.01876831054688 101.0872497558594 22.16706848144531 101.2399826049805 20.66156768798828 C 101.5141983032227 17.96010208129883 100.5255355834961 16.66110038757324 99.64785003662109 16.0471019744873 C 99.06231689453125 15.63723468780518 98.37162017822266 15.42040157318115 97.65090179443359 15.42040157318115 C 95.51035308837891 15.42040157318115 93.31275177001953 17.32306861877441 91.77231597900391 20.51003456115723 L 91.75318145751953 20.54963493347168 L 91.73580169677734 20.59003448486328 L 88.93556213378906 27.09913063049316 Z M 49.78693008422852 2.058998107910156 C 49.98235702514648 2.027488946914673 50.1930046081543 1.973530888557434 50.39960098266602 1.8786860704422 C 50.19361877441406 1.9798344373703 49.98228073120117 2.039454936981201 49.78693008422852 2.058998107910156 Z" stroke="none"/>
        <path d="M 61.67638397216797 4.000205993652344 C 51.94229125976563 4.000205993652344 50.18245697021484 4.040699005126953 49.87788772583008 4.058128356933594 C 49.68016052246094 4.083202362060547 49.47508239746094 4.099071502685547 49.26261901855469 4.105712890625 C 48.99340057373047 4.114131927490234 48.61883926391602 4.121570587158203 48.11751174926758 4.128459930419922 C 47.21120452880859 4.140914916992188 45.88407135009766 4.151386260986328 44.17298126220703 4.159587860107422 C 41.12580108642578 4.174167633056641 36.74307250976563 4.181877136230469 31.49864196777344 4.181877136230469 C 24.83582305908203 4.181877136230469 16.96054840087891 4.169422149658203 10.43231201171875 4.148571014404297 C 8.093536376953125 4.141094207763672 6.040802001953125 4.132854461669922 4.394256591796875 4.124378204345703 C 5.309417724609375 12.2695198059082 7.039695739746094 19.68973541259766 9.553169250488281 26.23397064208984 C 12.22172546386719 33.18195343017578 15.76560211181641 39.13482666015625 20.08636474609375 43.92726135253906 C 24.01705932617188 48.28702545166016 28.53207397460938 51.63053131103516 33.50600433349609 53.86491394042969 C 38.15449523925781 55.95309448242188 43.04814910888672 57.01189804077148 48.05100250244141 57.01189804077148 C 53.71780014038086 57.01189804077148 59.01211166381836 55.77555084228516 63.78687286376953 53.33720397949219 C 68.97543334960938 50.68755340576172 73.63151550292969 46.57458877563477 77.62576293945313 41.11257171630859 L 78.98020172119141 39.26040649414063 L 81.26276397705078 39.49458694458008 C 81.87220001220703 39.55709838867188 82.51930999755859 39.58880615234375 83.18537902832031 39.58880615234375 C 87.55220031738281 39.58800506591797 92.79002380371094 38.21395111083984 97.5557861328125 35.81893157958984 L 97.81240081787109 35.68998718261719 L 98.084716796875 35.59903335571289 C 98.15811157226563 35.57295227050781 99.47609710693359 35.09495544433594 101.0354385375977 33.92100524902344 C 102.0524215698242 33.15615081787109 102.9638748168945 32.25940704345703 103.7445983886719 31.25553321838379 C 104.7275085449219 29.99178695678711 105.5101089477539 28.54633331298828 106.0707626342773 26.95896911621094 C 107.4064559936523 23.17853164672852 107.8404235839844 19.63509750366211 107.3258743286133 16.71226119995117 C 107.0888748168945 15.36709594726563 106.6509628295898 14.18077087402344 106.0249862670898 13.18733215332031 C 105.4040756225586 12.20264053344727 104.5776901245117 11.38269805908203 103.5679626464844 10.74973297119141 C 102.1610412597656 9.867313385009766 100.5830230712891 9.400897979736328 99.00449371337891 9.400897979736328 C 98.24196624755859 9.400897979736328 97.48902130126953 9.509532928466797 96.76658630371094 9.723770141601563 L 90.42597961425781 11.60413360595703 L 91.70478820800781 5.115425109863281 C 91.77336120605469 4.767448425292969 91.84120178222656 4.4168701171875 91.90822601318359 4.064159393310547 C 84.87761688232422 4.040493011474609 71.47272491455078 4.000205993652344 61.67638397216797 4.000205993652344 M 96.73671722412109 33.42268371582031 C 94.99129486083984 34.98134231567383 92.56283569335938 36.42839050292969 89.51264190673828 37.72731018066406 L 89.06884002685547 38.05415344238281 L 88.07638549804688 38.19757080078125 L 88.07009124755859 38.19847869873047 L 85.35749053955078 38.59047698974609 L 84.01263427734375 36.20231628417969 C 83.60610961914063 35.48040771484375 83.07070922851563 33.99811553955078 84.05251312255859 32.18173217773438 C 84.11923217773438 32.05830764770508 84.20406341552734 31.90725135803223 84.31129455566406 31.71633338928223 L 84.31851196289063 31.70346069335938 C 84.82099914550781 30.80621719360352 85.86286163330078 28.94581031799316 87.11075592041016 26.27997207641602 L 89.89860534667969 19.79965972900391 L 89.933349609375 19.71887969970703 L 89.97163391113281 19.63967895507813 C 91.88203430175781 15.68724060058594 94.68102264404297 13.42040634155273 97.65089416503906 13.42040634155273 C 98.7840576171875 13.42040634155273 99.87136840820313 13.76224136352539 100.7943649291992 14.40835189819336 C 101.8720703125 15.16231536865234 103.6215515136719 17.00353240966797 103.2297821044922 20.86338806152344 C 103.0542373657227 22.59378814697266 102.4816589355469 24.59375 101.5279312133789 26.8077507019043 C 99.84902191162109 30.70503616333008 97.52268218994141 32.79488372802734 96.73671722412109 33.42268371582031 M 61.67637634277344 0.00020599365234375 C 75.64570617675781 0.000202178955078125 96.66811370849609 0.08100509643554688 96.66811370849609 0.08100509643554688 C 96.34638214111328 2.073440551757813 95.9998779296875 4.008495330810547 95.62929534912109 5.888858795166016 C 96.71587371826172 5.566623687744141 97.85131072998047 5.400897979736328 99.00449371337891 5.400897979736328 C 101.3364028930664 5.400897979736328 103.6485137939453 6.078605651855469 105.6933135986328 7.361095428466797 C 107.215202331543 8.315097808837891 108.4652938842773 9.558006286621094 109.4084930419922 11.05380630493164 C 110.3130035400391 12.48929595947266 110.9375991821289 14.15880584716797 111.2652053833008 16.01820755004883 C 111.8988037109375 19.6172981262207 111.4074020385742 23.86169815063477 109.8422927856445 28.29149627685547 C 109.1384963989258 30.28409576416016 108.1493988037109 32.10749816894531 106.9020004272461 33.71129608154297 C 105.9038925170898 34.99469757080078 104.7392959594727 36.14040374755859 103.4397125244141 37.11780548095703 C 101.2328948974609 38.77920532226563 99.37080383300781 39.38669586181641 99.35191345214844 39.39300537109375 C 94.04729461669922 42.05880737304688 88.15499877929688 43.58789825439453 83.18611145019531 43.58880615234375 C 82.37912750244141 43.58880615234375 81.6015625 43.55033111572266 80.85454559326172 43.47369384765625 C 71.77349090576172 55.89178848266602 60.20754623413086 61.01189804077148 48.05100250244141 61.01189804077148 C 26.4158935546875 61.01189804077148 3.20849609375 42.90569686889648 0 0.08100509643554688 C 0.00957489013671875 0.1267242431640625 17.34445953369141 0.1818771362304688 31.49863433837891 0.1818771362304688 C 41.30623626708984 0.1818771362304688 49.5849609375 0.1554183959960938 49.52160263061523 0.08100509643554688 C 49.47030639648438 0.02040863037109375 54.69234848022461 0.000209808349609375 61.67637634277344 0.00020599365234375 Z M 87.49800109863281 34.23960494995117 L 87.50429534912109 34.23869705200195 C 87.52140045166016 34.22609710693359 87.61591339111328 34.18649673461914 87.77339935302734 34.11989593505859 C 90.56340026855469 32.94720458984375 92.71349334716797 31.6808967590332 94.16340637207031 30.35700607299805 C 94.18499755859375 30.34080505371094 96.33060455322266 28.76220703125 97.85429382324219 25.22520446777344 C 98.63551330566406 23.41169738769531 99.11791229248047 21.7638053894043 99.25019836425781 20.45969772338867 C 99.38969421386719 19.08540725708008 99.1304931640625 18.12600708007813 98.50140380859375 17.68589782714844 C 98.24940490722656 17.50949478149414 97.96320343017578 17.42040634155273 97.65089416503906 17.42040634155273 C 96.33599853515625 17.42040634155273 94.73580169677734 18.97469711303711 93.572998046875 21.38040542602539 L 90.76051330566406 27.91800689697266 C 89.43299865722656 30.75929641723633 88.33051300048828 32.72580718994141 87.80129241943359 33.67080688476563 C 87.60060119628906 34.02809906005859 87.48989105224609 34.22520446777344 87.49800109863281 34.23960494995117 Z" stroke="none" fill="#191407"/>
      </g>
      <path id="Trazado_4" data-name="Trazado 4" d="M498.483,400.507a31.944,31.944,0,0,0,6.623,15.359c5.482,6.945,6.251,11.973,0,18.808-.159.167.857-2.874-1.206-9.088-2.777-6.136-6.347-5.282-7.854-14.525-1.269-6.758,3.055-10.182,2.437-10.554" transform="translate(-222.402 -245.727)" fill="#f2ddca" stroke="#191407" stroke-width="3"/>
      <path id="Trazado_5" data-name="Trazado 5" d="M484.941,370.161s2.343,4.72.558,12.176c-.88,3.676-4.852,6.437-6.248,11.893s1.6,8.048,2.057,9.177c-3.789,1.177-9.309-6.535-9.086-10.97s1.229-6.344,5.719-10.868S484.941,370.161,484.941,370.161Z" transform="translate(-217 -231.66)" fill="#f2ddca" stroke="#191407" stroke-width="3"/>
    </g>
    <g transform="matrix(1, 0, 0, 1, 82.5, -12.71)" filter="url(#moon_coffe)">
      <text id="moon_coffe-2" data-name="moon coffe" transform="translate(1.5 171.71)" fill="#88a6b4" stroke="#000" stroke-width="1.5" font-size="42" font-family="SegoeUI-BoldItalic, Segoe UI" font-weight="700" font-style="italic"><tspan x="0" y="0">moon coffe</tspan></text>
    </g>
  </g>
</svg>
